<?xml version="1.0" standalone="no"?>
<!DOCTYPE svg PUBLIC "-//W3C//DTD SVG 20010904//EN"
 "http://www.w3.org/TR/2001/REC-SVG-20010904/DTD/svg10.dtd">
<svg version="1.0" xmlns="http://www.w3.org/2000/svg"
 width="300.000000pt" height="300.000000pt" viewBox="0 0 300.000000 300.000000"
 preserveAspectRatio="xMidYMid meet">
<metadata>
Created by potrace 1.10, written by Peter Selinger 2001-2011
</metadata>
<g transform="translate(0.000000,300.000000) scale(0.100000,-0.100000)"
fill="#000000" stroke="none">
<path d="M542 2093 c3 -28 3 -28 98 -34 143 -8 185 -37 207 -142 9 -45 13
-172 13 -459 l0 -398 600 0 600 0 0 195 0 195 -30 0 c-27 0 -30 -3 -30 -32 0
-50 -25 -133 -55 -183 -53 -91 -121 -105 -497 -105 l-278 0 0 436 0 435 403
-3 402 -3 51 -27 c90 -47 135 -120 165 -266 13 -61 13 -62 47 -62 l34 0 -6 53
c-3 28 -8 129 -12 222 -3 94 -8 178 -10 188 -5 16 -54 17 -855 17 l-850 0 3
-27z"/>
<path d="M1455 1878 c-62 -24 -78 -38 -43 -38 34 0 38 -26 38 -265 0 -205 -6
-234 -50 -246 -14 -4 20 -7 75 -7 78 0 94 2 73 10 -32 11 -41 43 -36 132 l3
59 63 -80 c62 -81 73 -107 50 -116 -7 -3 30 -5 82 -5 52 0 86 3 75 5 -34 9
-54 28 -131 124 l-75 94 63 57 c36 33 79 62 101 68 20 6 37 13 37 15 0 3 -37
5 -82 5 -78 0 -80 -1 -64 -18 15 -18 13 -22 -51 -83 l-68 -64 -5 186 -5 187
-50 -20z"/>
</g>
</svg>
