<?xml version="1.0" standalone="no"?>
<!DOCTYPE svg PUBLIC "-//W3C//DTD SVG 20010904//EN"
 "http://www.w3.org/TR/2001/REC-SVG-20010904/DTD/svg10.dtd">
<svg version="1.0" xmlns="http://www.w3.org/2000/svg"
 width="600.000000pt" height="336.000000pt" viewBox="0 0 600.000000 336.000000"
 preserveAspectRatio="xMidYMid meet">
<g transform="translate(0.000000,336.000000) scale(0.100000,-0.100000)"
fill="#000000" stroke="none">
<path d="M150 1981 c0 -16 -3 -36 -6 -45 -5 -14 6 -16 81 -16 l87 0 -7 -42
c-8 -51 -43 -234 -50 -265 -5 -22 -3 -23 59 -23 l65 0 10 53 c17 84 51 268 51
273 0 2 44 4 99 4 l98 0 7 31 c12 63 28 59 -244 59 l-250 0 0 -29z"/>
<path d="M695 1978 c-4 -18 -21 -113 -39 -211 l-32 -178 65 3 66 3 10 65 10
65 51 3 c52 3 52 3 128 -68 l76 -70 70 0 c89 0 90 11 9 82 l-61 53 43 7 c81
14 116 57 126 154 7 63 -6 96 -44 113 -15 7 -105 11 -248 11 l-224 0 -6 -32z
m385 -73 c12 -15 8 -47 -10 -75 -14 -22 -276 -22 -273 0 1 8 4 32 8 53 l6 37
128 0 c102 0 131 -3 141 -15z"/>
<path d="M1343 1995 c-17 -7 -39 -28 -48 -45 -13 -25 -75 -315 -75 -352 0 -5
29 -8 64 -8 l64 0 7 43 c3 23 8 54 11 70 l6 27 149 0 c82 0 149 -3 149 -7 -1
-5 -7 -36 -14 -71 l-14 -63 66 3 67 3 6 40 c4 22 17 94 28 159 24 134 19 172
-24 200 -33 22 -393 23 -442 1z m346 -89 c9 -11 9 -25 1 -55 l-11 -41 -146 0
-146 0 6 42 c3 23 14 48 23 55 26 19 257 18 273 -1z"/>
<path d="M1871 1828 c-18 -101 -35 -195 -38 -210 l-5 -28 65 0 65 0 14 78 c19
109 34 109 162 2 l97 -81 87 3 87 3 -117 98 c-65 54 -118 101 -118 105 0 4 66
52 147 107 l148 100 -88 3 -89 3 -114 -81 c-125 -88 -137 -95 -158 -87 -12 5
-12 16 0 79 8 40 14 76 14 81 0 4 -28 7 -63 7 l-63 0 -33 -182z"/>
<path d="M2534 1994 c-43 -21 -62 -60 -85 -174 -27 -144 -26 -172 12 -204 l31
-26 218 0 218 0 6 31 c12 62 21 59 -167 59 -220 0 -215 -3 -196 111 21 130 18
129 239 129 146 0 180 3 180 14 0 7 3 28 6 45 l7 31 -219 0 c-175 0 -225 -4
-250 -16z"/>
<path d="M3007 1807 c-20 -111 -37 -206 -37 -210 0 -4 29 -7 64 -7 l64 0 11
63 c6 35 11 71 11 80 0 15 16 17 141 17 129 0 140 -1 135 -17 -4 -16 -26 -131
-26 -140 0 -2 29 -3 65 -3 36 0 65 4 65 8 0 4 16 97 35 205 19 108 35 199 35
202 0 3 -29 5 -64 5 l-64 0 -7 -37 c-3 -21 -11 -59 -17 -85 l-10 -48 -134 0
c-134 0 -134 0 -130 23 14 64 26 129 26 137 0 6 -28 10 -63 10 l-64 0 -36
-203z"/>
<path d="M3683 1995 c-17 -7 -39 -25 -48 -39 -15 -23 -74 -300 -75 -348 0 -15
10 -18 65 -18 58 0 65 2 65 20 0 10 5 42 11 70 l11 50 150 0 151 0 -6 -45 c-4
-25 -9 -56 -13 -70 -6 -25 -6 -25 60 -25 36 0 66 1 66 3 0 1 11 63 25 137 51
275 46 280 -242 280 -137 -1 -197 -5 -220 -15z m341 -81 c18 -7 21 -40 6 -78
l-10 -26 -145 0 -145 0 0 35 c0 64 22 75 159 75 66 0 126 -3 135 -6z"/>
<path d="M4250 2002 c0 -5 -16 -94 -35 -198 -19 -104 -35 -195 -35 -201 0 -9
19 -13 64 -13 71 0 67 -4 81 93 l7 47 56 0 c54 0 56 -1 133 -70 l77 -70 83 0
83 0 -75 70 c-63 59 -70 69 -51 70 39 0 92 31 108 61 24 47 35 124 23 159 -20
55 -43 60 -294 60 -124 0 -225 -4 -225 -8z m389 -96 c16 -19 4 -63 -22 -81
-16 -11 -52 -15 -145 -15 l-124 0 7 48 c4 26 9 50 12 55 2 4 62 7 132 7 98 0
131 -3 140 -14z"/>
<path d="M4904 2000 c-46 -18 -70 -64 -92 -176 -30 -147 -29 -169 8 -205 l30
-30 200 3 200 3 30 30 c22 23 33 48 45 103 25 122 35 112 -115 112 l-130 0 -6
-27 c-3 -16 -7 -34 -10 -40 -2 -10 16 -13 72 -13 l74 0 -6 -27 c-11 -47 -28
-53 -150 -53 -143 0 -142 0 -121 118 23 125 18 122 238 122 135 0 181 3 183
13 3 6 7 27 10 45 l6 32 -223 -1 c-122 0 -231 -4 -243 -9z"/>
<path d="M5435 1998 c-6 -20 -75 -381 -75 -395 0 -10 57 -13 250 -13 l250 0 5
28 c15 68 32 62 -171 62 l-184 0 0 35 0 35 174 0 c96 0 177 3 180 8 2 4 7 24
11 44 l7 38 -173 2 -174 3 4 30 c1 17 5 33 8 38 2 4 84 7 182 7 l179 0 6 31
c12 63 27 59 -234 59 -184 0 -242 -3 -245 -12z"/>
<path d="M3570 1509 c-976 -5 -2043 -12 -2370 -16 l-595 -8 620 -6 c795 -9
2278 -27 3109 -39 l649 -10 276 40 c152 21 290 41 306 43 38 5 123 5 -1995 -4z"/>
</g>
</svg>
